<?xml version="1.0" encoding="UTF-8"?>
<svg version="1.1" xmlns="http://www.w3.org/2000/svg" width="512" height="512">
<path d="M0 0 C3.26626351 2.3450097 4.1724449 4.17557062 5 8 C5.61732107 7.99848112 6.23464213 7.99696224 6.8706699 7.99539733 C43.45440561 7.90589393 80.03812512 7.83725828 116.62194789 7.79573868 C121.0141601 7.79073583 125.4063721 7.78555854 129.79858398 7.78027344 C130.67299794 7.7792242 131.54741189 7.77817495 132.44832324 7.77709392 C146.60855497 7.75968651 160.76872177 7.72814697 174.92891497 7.69138882 C189.45751416 7.65398874 203.98607932 7.63176612 218.51472467 7.62364602 C227.48041275 7.61815631 236.44591731 7.6008147 245.41154891 7.56833413 C251.55879941 7.54719777 257.70595498 7.54079796 263.85323919 7.54599449 C267.40047403 7.54855766 270.94738809 7.54461596 274.49456596 7.5231781 C278.34143112 7.50009895 282.18787845 7.508048 286.0348053 7.51898193 C287.15446326 7.50733057 288.27412122 7.4956792 289.42770821 7.48367476 C295.83627688 7.53300828 299.80669876 8.13975841 305 12 C308.6230175 16.98216756 308.39612514 21.85920489 308.29296875 27.7734375 C308.28872391 28.6971817 308.28447906 29.6209259 308.28010559 30.57266235 C308.26338673 33.5070783 308.22574716 36.44079356 308.1875 39.375 C308.17244438 41.37108379 308.15875751 43.36717841 308.14648438 45.36328125 C308.11350545 50.24245522 308.06177014 55.12110903 308 60 C308.61308014 59.99333817 309.22616028 59.98667633 309.8578186 59.97981262 C316.24939724 59.91334695 322.64087738 59.86815269 329.03271484 59.83520508 C331.41687001 59.820136 333.80099753 59.79967709 336.18505859 59.77368164 C339.61562937 59.73721663 343.045833 59.72025448 346.4765625 59.70703125 C348.07064438 59.68380547 348.07064438 59.68380547 349.69692993 59.66011047 C356.91685974 59.65847544 361.28354672 60.34941716 366.62654114 65.56285095 C369.77628575 69.45409741 369.67513453 73.00302476 369.56762695 77.85107422 C369.56835709 78.72001816 369.56908722 79.5889621 369.56983948 80.48423767 C369.56637029 83.34170069 369.52754148 86.19751109 369.48828125 89.0546875 C369.47895073 91.04150502 369.47183575 93.02833408 369.46684265 95.01516724 C369.44779172 100.23343916 369.39870702 105.45101042 369.34332275 110.66900635 C369.29208934 115.99799116 369.26931985 121.32708966 369.24414062 126.65625 C369.1905867 137.10447377 369.10529671 147.55217852 369 158 C368.1231958 158.05333496 367.2463916 158.10666992 366.34301758 158.16162109 C364.60507935 158.27884521 364.60507935 158.27884521 362.83203125 158.3984375 C361.68710205 158.47239746 360.54217285 158.54635742 359.36254883 158.62255859 C350.78760752 159.58508377 343.59561399 163.42204489 338 170 C332.82618318 178.35275402 330.44801671 186.5822531 332.49609375 196.37109375 C335.11271424 204.90098088 338.90462951 211.06646644 346.6171875 215.75 C352.2408258 218.70010534 357.46224828 220.05726017 363.7890625 220.57421875 C365.25786865 220.6973645 365.25786865 220.6973645 366.75634766 220.82299805 C367.86695557 220.91061401 367.86695557 220.91061401 369 221 C369.09272773 232.3700805 369.16377926 243.74007087 369.20724869 255.11045265 C369.22811311 260.39034009 369.25641012 265.6699686 369.30175781 270.94970703 C369.345256 276.04607052 369.36914573 281.14218513 369.37950897 286.23871994 C369.38689318 288.18197929 369.40131288 290.1252252 369.42292023 292.06837845 C369.45200697 294.79279135 369.4559538 297.51617917 369.45410156 300.24072266 C369.46848267 301.04201599 369.48286377 301.84330933 369.49768066 302.66888428 C369.45934018 307.88929895 368.53414465 310.9151415 365 315 C360.93660616 318.02938704 357.95654237 318.37619195 352.93872261 318.38031673 C352.23606386 318.38497665 351.53340511 318.38963657 350.80945367 318.3944377 C348.44904323 318.40641239 346.08920578 318.39698303 343.72879028 318.38768005 C342.02179293 318.3918519 340.31479836 318.3973286 338.60780895 318.40399987 C333.91231339 318.41849289 329.21699277 318.41419772 324.52148747 318.40683305 C319.45934591 318.40211318 314.39724285 318.41460078 309.33511353 318.42485046 C299.41594153 318.44206727 289.49683279 318.44287247 279.57764973 318.43763756 C271.51670414 318.43359983 263.45577729 318.4350347 255.39483261 318.44038582 C253.67538105 318.44150845 253.67538105 318.44150845 251.92119309 318.44265376 C249.59264287 318.44418521 247.26409266 318.44572355 244.93554245 318.44726873 C223.08691997 318.46100431 201.23833327 318.45554875 179.3897116 318.44408352 C159.39375651 318.43415098 139.39789394 318.44709032 119.40195312 318.47101771 C98.87959617 318.49539034 78.35728236 318.50502104 57.83491123 318.49836498 C46.30937884 318.49486856 34.78391762 318.49713268 23.25839615 318.51461601 C13.44643956 318.52931508 3.63460425 318.53000355 -6.17734991 318.5125451 C-11.18478673 318.50401363 -16.19200668 318.50193785 -21.19943237 318.51719666 C-25.78262237 318.53098995 -30.3654086 318.52634986 -34.94857492 318.50695742 C-36.60735344 318.50318057 -38.26616389 318.50616765 -39.92491411 318.51656907 C-42.17944338 318.52970205 -44.43257151 318.51819047 -46.68704033 318.50057125 C-48.56543832 318.50041025 -48.56543832 318.50041025 -50.48178375 318.50024599 C-54.93553902 317.86697815 -57.27912012 316.51007809 -61 314 C-64.6230175 309.01783244 -64.39612514 304.14079511 -64.29296875 298.2265625 C-64.28872391 297.3028183 -64.28447906 296.3790741 -64.28010559 295.42733765 C-64.26338673 292.4929217 -64.22574716 289.55920644 -64.1875 286.625 C-64.17244438 284.62891621 -64.15875751 282.63282159 -64.14648438 280.63671875 C-64.11350545 275.75754478 -64.06177014 270.87889097 -64 266 C-64.59833145 266.00666183 -65.1966629 266.01332367 -65.81312561 266.02018738 C-72.05887461 266.08672566 -78.30452235 266.13187727 -84.55053711 266.16479492 C-86.87935478 266.17985089 -89.20814424 266.20030004 -91.53686523 266.22631836 C-94.89053321 266.26284133 -98.24382518 266.27975871 -101.59765625 266.29296875 C-102.63334244 266.30845261 -103.66902863 266.32393646 -104.73609924 266.33988953 C-112.17756397 266.34160927 -117.09661614 265.79917256 -122.65826416 260.43714905 C-125.7741431 256.54662643 -125.67468427 252.97667113 -125.56762695 248.14892578 C-125.56835709 247.27998184 -125.56908722 246.4110379 -125.56983948 245.51576233 C-125.56637029 242.65829931 -125.52754148 239.80248891 -125.48828125 236.9453125 C-125.47895073 234.95849498 -125.47183575 232.97166592 -125.46684265 230.98483276 C-125.44779172 225.76656084 -125.39870702 220.54898958 -125.34332275 215.33099365 C-125.29208934 210.00200884 -125.26931985 204.67291034 -125.24414062 199.34375 C-125.1905867 188.89552623 -125.10529671 178.44782148 -125 168 C-124.1231958 167.94666504 -123.2463916 167.89333008 -122.34301758 167.83837891 C-120.60507935 167.72115479 -120.60507935 167.72115479 -118.83203125 167.6015625 C-117.68710205 167.52760254 -116.54217285 167.45364258 -115.36254883 167.37744141 C-106.78760752 166.41491623 -99.59561399 162.57795511 -94 156 C-88.80967377 147.62059273 -86.52374502 139.48135999 -88.4609375 129.6640625 C-90.85540697 121.63554723 -94.75597061 115.0591415 -101.9375 110.5625 C-107.79957544 107.40465579 -113.11372853 106.02938102 -119.72265625 105.45703125 C-120.71144775 105.37042236 -121.70023926 105.28381348 -122.71899414 105.19458008 C-123.84809204 105.09826294 -123.84809204 105.09826294 -125 105 C-125.09272773 93.6299195 -125.16377926 82.25992913 -125.20724869 70.88954735 C-125.22811311 65.60965991 -125.25641012 60.3300314 -125.30175781 55.05029297 C-125.345256 49.95392948 -125.36914573 44.85781487 -125.37950897 39.76128006 C-125.38689318 37.81802071 -125.40131288 35.8747748 -125.42292023 33.93162155 C-125.45200697 31.20720865 -125.4559538 28.48382083 -125.45410156 25.75927734 C-125.46848267 24.95798401 -125.48286377 24.15669067 -125.49768066 23.33111572 C-125.45934018 18.11070105 -124.53414465 15.0848585 -121 11 C-116.50021596 7.06141241 -111.55859492 7.595318 -105.88549805 7.65942383 C-104.87039658 7.65898575 -103.8552951 7.65854767 -102.80943298 7.65809631 C-99.45999808 7.66018343 -96.11106603 7.6835114 -92.76171875 7.70703125 C-90.437162 7.71262746 -88.11260171 7.71689744 -85.78804016 7.71989441 C-79.67400317 7.7313411 -73.56018045 7.76080706 -67.44622803 7.79400635 C-61.20571796 7.82471084 -54.96517323 7.83840058 -48.72460938 7.85351562 C-36.48297885 7.88567669 -24.24150725 7.93687116 -12 8 C-11.85691406 7.21238281 -11.71382813 6.42476563 -11.56640625 5.61328125 C-11 3 -11 3 -9.9375 1.1875 C-6.78926687 -0.74206224 -3.52721333 -0.64712987 0 0 Z " fill="#64B5F5" transform="translate(134,97)"/>
<path d="M0 0 C7.01127527 -0.06893825 14.02137047 -0.12865397 21.03271484 -0.16479492 C23.41687001 -0.179864 25.80099753 -0.20032291 28.18505859 -0.22631836 C31.61562937 -0.26278337 35.045833 -0.27974552 38.4765625 -0.29296875 C40.07064438 -0.31619453 40.07064438 -0.31619453 41.69692993 -0.33988953 C48.91685974 -0.34152456 53.28354672 0.34941716 58.62654114 5.56285095 C61.77628575 9.45409741 61.67513453 13.00302476 61.56762695 17.85107422 C61.56835709 18.72001816 61.56908722 19.5889621 61.56983948 20.48423767 C61.56637029 23.34170069 61.52754148 26.19751109 61.48828125 29.0546875 C61.47895073 31.04150502 61.47183575 33.02833408 61.46684265 35.01516724 C61.44779172 40.23343916 61.39870702 45.45101042 61.34332275 50.66900635 C61.29208934 55.99799116 61.26931985 61.32708966 61.24414062 66.65625 C61.1905867 77.10447377 61.10529671 87.55217852 61 98 C60.1231958 98.05333496 59.2463916 98.10666992 58.34301758 98.16162109 C57.18439209 98.23977051 56.0257666 98.31791992 54.83203125 98.3984375 C53.68710205 98.47239746 52.54217285 98.54635742 51.36254883 98.62255859 C42.78760752 99.58508377 35.59561399 103.42204489 30 110 C24.82618318 118.35275402 22.44801671 126.5822531 24.49609375 136.37109375 C27.11271424 144.90098088 30.90462951 151.06646644 38.6171875 155.75 C44.2408258 158.70010534 49.46224828 160.05726017 55.7890625 160.57421875 C57.25786865 160.6973645 57.25786865 160.6973645 58.75634766 160.82299805 C59.86695557 160.91061401 59.86695557 160.91061401 61 161 C61.09272773 172.3700805 61.16377926 183.74007087 61.20724869 195.11045265 C61.22811311 200.39034009 61.25641012 205.6699686 61.30175781 210.94970703 C61.345256 216.04607052 61.36914573 221.14218513 61.37950897 226.23871994 C61.38689318 228.18197929 61.40131288 230.1252252 61.42292023 232.06837845 C61.45200697 234.79279135 61.4559538 237.51617917 61.45410156 240.24072266 C61.47567322 241.44266266 61.47567322 241.44266266 61.49768066 242.66888428 C61.45934018 247.88929895 60.53414465 250.9151415 57 255 C52.93660616 258.02938704 49.95654237 258.37619195 44.93872261 258.38031673 C44.23606386 258.38497665 43.53340511 258.38963657 42.80945367 258.3944377 C40.44904323 258.40641239 38.08920578 258.39698303 35.72879028 258.38768005 C34.02179293 258.3918519 32.31479836 258.3973286 30.60780895 258.40399987 C25.91231339 258.41849289 21.21699277 258.41419772 16.52148747 258.40683305 C11.45934591 258.40211318 6.39724285 258.41460078 1.33511353 258.42485046 C-8.58405847 258.44206727 -18.50316721 258.44287247 -28.42235027 258.43763756 C-36.48329586 258.43359983 -44.54422271 258.4350347 -52.60516739 258.44038582 C-54.32461895 258.44150845 -54.32461895 258.44150845 -56.07880691 258.44265376 C-58.40735713 258.44418521 -60.73590734 258.44572355 -63.06445755 258.44726873 C-84.91308003 258.46100431 -106.76166673 258.45554875 -128.6102884 258.44408352 C-148.60624349 258.43415098 -168.60210606 258.44709032 -188.59804688 258.47101771 C-209.12040383 258.49539034 -229.64271764 258.50502104 -250.16508877 258.49836498 C-261.69062116 258.49486856 -273.21608238 258.49713268 -284.74160385 258.51461601 C-294.55356044 258.52931508 -304.36539575 258.53000355 -314.17734991 258.5125451 C-319.18478673 258.50401363 -324.19200668 258.50193785 -329.19943237 258.51719666 C-333.78262237 258.53098995 -338.3654086 258.52634986 -342.94857492 258.50695742 C-344.60735344 258.50318057 -346.26616389 258.50616765 -347.92491411 258.51656907 C-350.17944338 258.52970205 -352.43257151 258.51819047 -354.68704033 258.50057125 C-355.93930566 258.50046391 -357.19157099 258.50035658 -358.48178375 258.50024599 C-362.93511375 257.86703862 -365.27908443 256.50909692 -369 254 C-372.67142037 248.97742594 -372.39505728 243.97932181 -372.29296875 238.0078125 C-372.28994751 237.16855225 -372.28692627 236.32929199 -372.28381348 235.46459961 C-372.26820325 232.35127334 -372.22631957 229.23812338 -372.1875 226.125 C-372.125625 219.15375 -372.06375 212.1825 -372 205 C-354.84 205 -337.68 205 -320 205 C-319.01 206.98 -318.02 208.96 -317 211 C-314.15916359 212.42041821 -312.14522722 212.31452272 -309 212 C-306.36943595 209.88093452 -304.8798757 207.81981355 -303 205 C-300.90888256 204.63200718 -300.90888256 204.63200718 -298.26562405 204.64202976 C-297.26049092 204.63852341 -296.25535779 204.63501706 -295.21976608 204.63140446 C-294.10724678 204.64287146 -292.99472749 204.65433847 -291.84849548 204.66615295 C-290.0852374 204.66654144 -290.0852374 204.66654144 -288.28635794 204.66693777 C-285.01304134 204.67060971 -281.74010643 204.68777792 -278.46687615 204.71043932 C-274.94048678 204.73156148 -271.41407628 204.73534872 -267.88763428 204.74104309 C-261.77236757 204.75313361 -255.65721287 204.77577473 -249.54200554 204.80507088 C-240.69058135 204.84710815 -231.83919443 204.86885052 -222.98768897 204.88481634 C-208.61488769 204.91092101 -194.24213598 204.94748369 -179.86938477 204.9934082 C-179.00858889 204.99615395 -178.14779302 204.9988997 -177.26091243 205.00172865 C-167.66420984 205.0325278 -158.06751528 205.06532566 -148.4708252 205.09979248 C-144.99495459 205.11223 -141.51908383 205.12462093 -138.04321289 205.13696289 C-137.18558524 205.14001267 -136.3279576 205.14306246 -135.44434123 205.14620466 C-121.13490834 205.19664482 -106.82548291 205.2314615 -92.51597983 205.25434297 C-83.68985501 205.26914844 -74.86397705 205.29757769 -66.03795881 205.34360539 C-59.98511289 205.3742111 -53.93233716 205.39044634 -47.87941634 205.39546592 C-44.38860552 205.39885377 -40.89813689 205.4088026 -37.40742683 205.43644714 C-33.6181879 205.4630878 -29.82970229 205.46498595 -26.04039001 205.46083069 C-24.39503365 205.48137728 -24.39503365 205.48137728 -22.71643776 205.50233895 C-16.04710487 205.46249387 -10.75736568 204.50652511 -5 201 C-0.69066516 196.55599844 -0.8378936 191.74368796 -0.79467773 185.85668945 C-0.78477814 185.02719788 -0.77487854 184.1977063 -0.76467896 183.34307861 C-0.73307795 180.59984191 -0.70831202 177.85658789 -0.68359375 175.11328125 C-0.66302302 173.21184335 -0.64202651 171.31041001 -0.62062073 169.40898132 C-0.56541239 164.40310356 -0.51599762 159.39718462 -0.46777344 154.39123535 C-0.4175494 149.28357272 -0.36186804 144.17596993 -0.30664062 139.06835938 C-0.19907418 129.04562404 -0.09762581 119.02283675 0 109 C-0.87825439 109.01667725 -1.75650879 109.03335449 -2.66137695 109.05053711 C-4.40100708 109.0699939 -4.40100708 109.0699939 -6.17578125 109.08984375 C-7.32216064 109.106521 -8.46854004 109.12319824 -9.6496582 109.14038086 C-18.52115845 108.76866093 -24.59463525 104.35260465 -30.8671875 98.375 C-33.74419361 95.17130088 -35.50181604 92.00601364 -37 88 C-37.35449219 87.2059375 -37.70898438 86.411875 -38.07421875 85.59375 C-40.71204807 78.20337588 -39.28308963 69.95023879 -36 63 C-31.77255399 55.08506214 -26.46776122 50.73536401 -18.9375 46.125 C-15 45 -15 45 0 45 C0 30.15 0 15.3 0 0 Z " fill="#42A5F4" transform="translate(442,157)"/>
<path d="M0 0 C0 17.49 0 34.98 0 53 C1.98 53.66 3.96 54.32 6 55 C8.07295714 56.10672261 10.11652167 57.26968325 12.1328125 58.4765625 C13.83630859 59.48203125 13.83630859 59.48203125 15.57421875 60.5078125 C17.35772827 61.56934317 19.13948223 62.6336854 20.91943359 63.70117188 C22.65281893 64.73787421 24.39273856 65.76362643 26.1328125 66.7890625 C27.16293457 67.40475098 28.19305664 68.02043945 29.25439453 68.65478516 C32.08909787 70.29332032 32.08909787 70.29332032 36 70 C38.76838586 68.76225566 38.76838586 68.76225566 41.68359375 67.04296875 C42.77607422 66.42486328 43.86855469 65.80675781 44.99414062 65.16992188 C46.13044922 64.51572266 47.26675781 63.86152344 48.4375 63.1875 C50.13616211 62.22360352 50.13616211 62.22360352 51.86914062 61.24023438 C57.85188629 57.84626821 57.85188629 57.84626821 63.73852539 54.2902832 C66 53 66 53 68 53 C68 35.51 68 18.02 68 0 C79.52443093 4.60977237 87.61786859 15.0617395 93 26 C94.65422137 30.27531452 95.93378285 34.5447355 97 39 C97.17362061 39.63365479 97.34724121 40.26730957 97.52612305 40.92016602 C100.9408954 55.90751568 96.98311369 72.78619256 89.8828125 86.0234375 C81.73491924 98.90454676 71.65057358 107.17471321 58 114 C57.67 129.18 57.34 144.36 57 160 C41.82 160 26.64 160 11 160 C11.375 137.5 11.375 137.5 11.60302734 130.44335938 C12.06865265 120.84966027 12.06865265 120.84966027 8.64682007 112.2711792 C4.86426319 109.15706185 0.54864553 107.7335035 -4 106 C-16.62514086 96.72715367 -26.82209906 81.37648535 -29.56640625 65.78125 C-30.72877862 55.6445252 -30.90475008 44.84295313 -28 35 C-27.74347656 34.12214844 -27.48695313 33.24429688 -27.22265625 32.33984375 C-23.99246356 22.48290384 -12.65060994 0 0 0 Z " fill="#EEF3F6" transform="translate(252,202)"/>
<path d="M0 0 C1.07478969 0.00669217 1.07478969 0.00669217 2.1712923 0.01351953 C2.93113076 0.01039954 3.69096922 0.00727956 4.47383308 0.00406504 C7.03346423 -0.00394613 9.59286034 0.00242072 12.15249348 0.00869775 C13.98203388 0.00598927 15.81157319 0.00242914 17.64111042 -0.00192237 C22.62033336 -0.01106566 27.59947372 -0.00749415 32.57869816 -0.0011642 C37.78013812 0.00388578 42.98157083 -0.00079285 48.18301105 -0.00393653 C56.91927076 -0.00757911 65.6554967 -0.00276944 74.39175129 0.00674462 C84.50397956 0.01762973 94.61612719 0.01410435 104.7283535 0.00309181 C113.39757479 -0.00597277 122.06677175 -0.00727041 130.73599625 -0.00203085 C135.91940795 0.00109342 141.1027817 0.0014857 146.28619099 -0.00510383 C151.1583876 -0.01086463 156.03047985 -0.0069037 160.90266514 0.00468469 C162.69498871 0.00733807 164.48732101 0.00655469 166.27964115 0.00215936 C168.71809164 -0.00327092 171.15620349 0.00350707 173.59463215 0.01351953 C174.31115861 0.00905808 175.02768507 0.00459664 175.76592445 0 C180.65466205 0.03918663 180.65466205 0.03918663 182.88296223 2.26748681 C183.08253193 4.82499134 183.16283049 7.27186822 183.14858723 9.82998681 C183.15050068 10.5770791 183.15241413 11.32417138 183.15438557 12.09390283 C183.15574721 13.67422852 183.15205222 15.25456539 183.14370441 16.83486962 C183.13300423 19.25797603 183.14360002 21.68034104 183.15639973 24.10342431 C183.15507813 25.63728012 183.15251573 27.17113546 183.14858723 28.70498681 C183.15263569 29.43209863 183.15668415 30.15921044 183.16085529 30.90835595 C183.11288583 36.0375632 183.11288583 36.0375632 180.88296223 38.26748681 C178.41650081 38.46484692 176.06224215 38.53681864 173.59463215 38.5214541 C172.83479369 38.52457408 172.07495523 38.52769406 171.29209137 38.53090858 C168.73246023 38.53891976 166.17306411 38.5325529 163.61343098 38.52627587 C161.78389058 38.52898435 159.95435126 38.53254448 158.12481403 38.53689599 C153.1455911 38.54603928 148.16645074 38.54246777 143.1872263 38.53613782 C137.98578633 38.53108784 132.78435363 38.53576647 127.5829134 38.53891015 C118.84665369 38.54255273 110.11042775 38.53774306 101.37417316 38.528229 C91.2619449 38.5173439 81.14979727 38.52086927 71.03757095 38.53188181 C62.36834966 38.54094639 53.6991527 38.54224403 45.02992821 38.53700447 C39.84651651 38.5338802 34.66314276 38.53348792 29.47973347 38.54007745 C24.60753686 38.54583825 19.7354446 38.54187732 14.86325932 38.53028893 C13.07093574 38.52763555 11.27860345 38.52841893 9.4862833 38.53281426 C7.04783281 38.53824454 4.60972096 38.53146656 2.1712923 38.5214541 C1.45476584 38.52591554 0.73823938 38.53037698 0 38.53497362 C-4.88873759 38.49578699 -4.88873759 38.49578699 -7.11703777 36.26748681 C-7.31660747 33.70998228 -7.39690604 31.2631054 -7.38266277 28.70498681 C-7.38457623 27.95789453 -7.38648968 27.21080224 -7.38846111 26.4410708 C-7.38982275 24.86074511 -7.38612777 23.28040823 -7.37777996 21.700104 C-7.36707977 19.27699759 -7.37767556 16.85463258 -7.39047527 14.43154931 C-7.38915367 12.8976935 -7.38659127 11.36383816 -7.38266277 9.82998681 C-7.38671124 9.10287499 -7.3907597 8.37576318 -7.39493084 7.62661767 C-7.33703279 1.43578088 -6.24069895 0.05002354 0 0 Z " fill="#FED92D" transform="translate(198.11703777313232,136.7325131893158)"/>
<path d="M0 0 C1.54210144 -0.00361794 1.54210144 -0.00361794 3.11535645 -0.00730896 C5.28739278 -0.00633014 7.45945395 0.0070717 9.63134766 0.03198242 C12.95691636 0.06628419 16.2798275 0.05264412 19.60546875 0.03320312 C21.71615715 0.04010165 23.82683869 0.04977409 25.9375 0.0625 C26.93237427 0.05754013 27.92724854 0.05258026 28.95227051 0.04747009 C35.80998668 0.16452709 35.80998668 0.16452709 39.09570312 2.48071289 C40.99882154 5.45822692 41.03583951 7.15548301 40.46875 10.62890625 C38.66881226 13.32881287 37.384977 15.17079275 34.46875 16.62890625 C33.10683795 16.73787865 31.7399246 16.78784104 30.3737793 16.8059082 C29.52917648 16.81874344 28.68457367 16.83157867 27.81437683 16.84480286 C26.89981216 16.85218979 25.9852475 16.85957672 25.04296875 16.8671875 C24.10322708 16.87525925 23.16348541 16.88333099 22.19526672 16.89164734 C20.2038457 16.90549178 18.2124009 16.91621232 16.22094727 16.92407227 C13.17874032 16.94127904 10.13762175 16.98516107 7.09570312 17.02929688 C5.16146633 17.03942429 3.22722029 17.04794024 1.29296875 17.0546875 C0.38447678 17.07219559 -0.5240152 17.08970367 -1.46003723 17.10774231 C-5.6192139 17.09349511 -7.93880819 16.9811061 -11.57885742 14.81713867 C-14.30803012 11.75829474 -14.60256447 9.69383132 -14.53125 5.62890625 C-11.29211555 -0.82997014 -6.43528442 -0.08575993 0 0 Z " fill="#EAF2F6" transform="translate(56.53125,300.37109375)"/>
<path d="M0 0 C0.95769287 -0.00004028 1.91538574 -0.00008057 2.90209961 -0.00012207 C4.92275572 0.00522881 6.9434116 0.02279301 8.96386719 0.05175781 C12.05208114 0.09360881 15.13811277 0.09282477 18.2265625 0.0859375 C20.19272345 0.09643074 22.15887318 0.10936956 24.125 0.125 C25.04595459 0.12520142 25.96690918 0.12540283 26.91577148 0.12561035 C31.70072884 0.2136921 35.27777394 0.31543095 39.0625 3.59375 C40.23430914 7.54860583 40.4673133 9.66267942 38.8125 13.46875 C37.0625 15.59375 37.0625 15.59375 34.0625 16.59375 C32.62643634 16.69919902 31.18614801 16.75217382 29.74633789 16.77075195 C28.87856216 16.78358719 28.01078644 16.79642242 27.11671448 16.80964661 C25.71509315 16.82072701 25.71509315 16.82072701 24.28515625 16.83203125 C23.32226181 16.840103 22.35936737 16.84817474 21.36729431 16.85649109 C19.3305745 16.87031939 17.29383163 16.88104715 15.25708008 16.88891602 C12.14034413 16.90616508 9.02465915 16.95006655 5.90820312 16.99414062 C3.9296953 17.00426463 1.95117846 17.01278165 -0.02734375 17.01953125 C-0.95973373 17.03703934 -1.89212372 17.05454742 -2.85276794 17.07258606 C-9.29325301 17.05095158 -9.29325301 17.05095158 -12.49047852 14.78198242 C-14.58544949 11.61389994 -15.00400589 9.38458594 -14.9375 5.59375 C-10.79748309 -0.31135711 -6.6392421 -0.11819489 0 0 Z " fill="#EDF3F6" transform="translate(56.9375,142.40625)"/>
<path d="M0 0 C0.97988892 -0.00478363 1.95977783 -0.00956726 2.96936035 -0.01449585 C5.03704436 -0.01789191 7.10478228 -0.00871013 9.17236328 0.01220703 C12.33357702 0.03897635 15.49124018 0.01244879 18.65234375 -0.01953125 C20.66407032 -0.0162271 22.67579469 -0.00982076 24.6875 0 C25.63032837 -0.01012115 26.57315674 -0.02024231 27.54455566 -0.03067017 C32.10665574 0.05062893 34.21529625 0.19996605 37.97851562 2.97900391 C39.84375 5.6640625 39.84375 5.6640625 39.84375 9.2890625 C38.89831241 12.47991437 38.48003553 13.76593692 35.84375 15.6640625 C33.57193601 16.79996949 32.2731671 16.80767963 29.7487793 16.84106445 C28.90417648 16.85389969 28.05957367 16.86673492 27.18937683 16.87995911 C26.27481216 16.88734604 25.3602475 16.89473297 24.41796875 16.90234375 C23.47822708 16.9104155 22.53848541 16.91848724 21.57026672 16.92680359 C19.5788457 16.94064803 17.5874009 16.95136857 15.59594727 16.95922852 C12.55374032 16.97643529 9.51262175 17.02031732 6.47070312 17.06445312 C4.53646633 17.07458054 2.60222029 17.08309649 0.66796875 17.08984375 C-0.24052322 17.10735184 -1.1490152 17.12485992 -2.08503723 17.14289856 C-6.2430015 17.12865551 -8.5622125 17.01766419 -12.19995117 14.85229492 C-14.95168267 11.77432544 -15.30007689 9.76312875 -15.15625 5.6640625 C-10.99599057 -0.29109509 -6.6883707 -0.07179889 0 0 Z " fill="#EBF2F6" transform="translate(57.15625,270.3359375)"/>
<path d="M0 0 C2.96991701 0.60983922 4.20486489 1.94625545 5.90234375 4.390625 C7.60076404 9.53263777 6.94162307 14.99220641 6.77734375 20.328125 C6.76703125 21.41287109 6.75671875 22.49761719 6.74609375 23.61523438 C6.49185248 31.57005255 6.49185248 31.57005255 3.5703125 35.63671875 C0.90234375 37.390625 0.90234375 37.390625 -2.66015625 37.515625 C-6.77180791 36.16999355 -7.78102341 34.98408085 -10.09765625 31.390625 C-10.61523438 28.40795898 -10.61523438 28.40795898 -10.62890625 25.13671875 C-10.6340625 23.95271484 -10.63921875 22.76871094 -10.64453125 21.54882812 C-10.6290625 20.32099609 -10.61359375 19.09316406 -10.59765625 17.828125 C-10.613125 16.59642578 -10.62859375 15.36472656 -10.64453125 14.09570312 C-10.639375 12.91298828 -10.63421875 11.73027344 -10.62890625 10.51171875 C-10.62439453 9.4333374 -10.61988281 8.35495605 -10.61523438 7.24389648 C-9.50274263 1.11102339 -5.61187008 -0.29261148 0 0 Z " fill="#FCD930" transform="translate(132.09765625,96.609375)"/>
<path d="M0 0 C2.59342857 1.65383589 3.57743744 2.36577227 5 5 C5.73258599 9.52927247 5.65141348 13.9846573 5.5625 18.5625 C5.57345703 19.79419922 5.58441406 21.02589844 5.59570312 22.29492188 C5.52171315 31.34636255 5.52171315 31.34636255 3.14819336 34.32006836 C0.33532848 36.51978688 -1.43105637 37 -5 37 C-7.74716387 35.22960551 -9.53145922 33.93708156 -11 31 C-11.32451599 26.73569552 -11.32451551 22.46261803 -11.375 18.1875 C-11.41238281 16.99833984 -11.44976562 15.80917969 -11.48828125 14.58398438 C-11.58729425 4.78719761 -11.58729425 4.78719761 -8.6640625 1.71484375 C-5.3620077 -0.41067246 -3.85107894 -0.80230811 0 0 Z " fill="#FAD932" transform="translate(133,239)"/>
<path d="M0 0 C2.7992738 2.16202531 3.87645971 3.33921492 4.53344727 6.85327148 C4.5690447 10.38269079 4.5938986 13.9079274 4.5625 17.4375 C4.58634766 18.66533203 4.61019531 19.89316406 4.63476562 21.15820312 C4.61839008 31.18549383 4.61839008 31.18549383 1.65234375 34.3046875 C-1 36 -1 36 -4 36.6875 C-7.35430274 35.91880562 -8.82961083 34.7828844 -10.95263672 32.09741211 C-13.21992236 27.55702727 -12.66812573 22.39619966 -12.5625 17.4375 C-12.57345703 16.31408203 -12.58441406 15.19066406 -12.59570312 14.03320312 C-12.523039 5.88028855 -12.523039 5.88028855 -10.08984375 1.78515625 C-6.44294635 -1.33004396 -4.62342337 -1.20209008 0 0 Z " fill="#FBD932" transform="translate(134,287)"/>
<path d="M0 0 C2.64819336 1.63671875 2.64819336 1.63671875 5 4 C5.63110352 6.9609375 5.63110352 6.9609375 5.62890625 10.375 C5.63180664 12.22351563 5.63180664 12.22351563 5.63476562 14.109375 C5.61091797 15.39328125 5.58707031 16.6771875 5.5625 18 C5.57345703 19.28390625 5.58441406 20.5678125 5.59570312 21.890625 C5.52170618 31.32276842 5.52170618 31.32276842 3.17944336 34.36328125 C1 36 1 36 -2.4375 36.5625 C-5.89914145 36.01592503 -7.57596062 35.45992791 -9.96801758 32.90600586 C-12.38886972 28.43484602 -11.70629883 22.9429691 -11.625 18 C-11.64433594 16.824375 -11.66367188 15.64875 -11.68359375 14.4375 C-11.62921864 4.86748113 -11.62921864 4.86748113 -8.6484375 1.72265625 C-5.37348008 -0.40751517 -3.83543732 -0.7191445 0 0 Z " fill="#FBD931" transform="translate(133,192)"/>
<path d="M0 0 C0.66 -0.00128906 1.32 -0.00257813 2 -0.00390625 C4.91896595 0.82275403 6.09537016 2.22242188 8 4.5625 C8.82990379 9.00144078 8.60260102 13.49217372 8.5625 18 C8.58634766 19.22783203 8.61019531 20.45566406 8.63476562 21.72070312 C8.61839004 31.74801817 8.61839004 31.74801817 5.65625 34.875 C2.39649117 36.94590561 0.79046306 37.28833335 -3 36.5625 C-5.30275556 34.6954009 -6.67823871 33.20602259 -8 30.5625 C-8.29695976 26.46445531 -8.27806005 22.3575376 -8.3125 18.25 C-8.34150391 17.10853516 -8.37050781 15.96707031 -8.40039062 14.79101562 C-8.46401717 6.41678327 -8.46401717 6.41678327 -6.23046875 2.3046875 C-3.88946841 0.47616535 -2.92920818 -0.09725887 0 0 Z " fill="#FBD931" transform="translate(130,144.4375)"/>
<path d="M0 0 C2.82555453 2.14250909 3.87553391 3.33426309 4.53344727 6.85327148 C4.5690447 10.38269079 4.5938986 13.9079274 4.5625 17.4375 C4.58634766 18.66533203 4.61019531 19.89316406 4.63476562 21.15820312 C4.61839004 31.18551817 4.61839004 31.18551817 1.65625 34.3125 C-1.60350883 36.38340561 -3.20953694 36.72583335 -7 36 C-9.30275556 34.1329009 -10.67823871 32.64352259 -12 30 C-12.32354067 25.9025007 -12.32447392 21.79618877 -12.375 17.6875 C-12.41238281 16.54603516 -12.44976562 15.40457031 -12.48828125 14.22851562 C-12.57677503 5.81668994 -12.57677503 5.81668994 -9.69921875 1.7421875 C-6.15695956 -0.54413319 -4.13941757 -0.67735924 0 0 Z " fill="#FBD931" transform="translate(134,334)"/>
</svg>
